<svg width="50" height="50" viewBox="0 0 50 50" fill="none" xmlns="http://www.w3.org/2000/svg">
<path d="M37.1788 25.4137L25.9288 12.9137C25.455 12.3862 24.545 12.3862 24.0713 12.9137L12.8213 25.4137C12.6593 25.5932 12.553 25.8159 12.5153 26.0546C12.4776 26.2934 12.5101 26.538 12.6088 26.7587C12.8088 27.2099 13.2563 27.4999 13.75 27.4999H16.25V36.2499C16.25 36.5815 16.3817 36.8994 16.6161 37.1338C16.8505 37.3682 17.1685 37.4999 17.5 37.4999H21.25C21.5815 37.4999 21.8995 37.3682 22.1339 37.1338C22.3683 36.8994 22.5 36.5815 22.5 36.2499V31.2499H27.5V36.2499C27.5 36.5815 27.6317 36.8994 27.8661 37.1338C28.1005 37.3682 28.4185 37.4999 28.75 37.4999H32.5C32.8315 37.4999 33.1495 37.3682 33.3839 37.1338C33.6183 36.8994 33.75 36.5815 33.75 36.2499V27.4999H36.25C36.4921 27.501 36.7292 27.4315 36.9326 27.3001C37.1359 27.1687 37.2965 26.981 37.395 26.7598C37.4935 26.5386 37.5254 26.2936 37.487 26.0546C37.4486 25.8156 37.3415 25.5929 37.1788 25.4137Z" fill="#CC0000"/>
</svg>
