<svg width="50" height="50" viewBox="0 0 50 50" fill="none" xmlns="http://www.w3.org/2000/svg">
<path d="M17 20C17 19.4477 17.4477 19 18 19H32C32.5523 19 33 19.4477 33 20V20C33 20.5523 32.5523 21 32 21H18C17.4477 21 17 20.5523 17 20V20ZM17 25C17 24.4477 17.4477 24 18 24H32C32.5523 24 33 24.4477 33 25V25C33 25.5523 32.5523 26 32 26H18C17.4477 26 17 25.5523 17 25V25ZM17 30C17 29.4477 17.4477 29 18 29H32C32.5523 29 33 29.4477 33 30V30C33 30.5523 32.5523 31 32 31H18C17.4477 31 17 30.5523 17 30V30Z" fill="black"/>
</svg>
