<svg width="50" height="50" viewBox="0 0 50 50" fill="none" xmlns="http://www.w3.org/2000/svg">
<circle cx="25.085" cy="25.085" r="17.085" fill="white"/>
<path d="M26.6667 19C26.6667 18.4477 27.1144 18 27.6667 18H29C29.5523 18 30 18.4477 30 19V30C30 30.5523 29.5523 31 29 31H27.6667C27.1144 31 26.6667 30.5523 26.6667 30V19ZM20 19C20 18.4477 20.4477 18 21 18H22.3333C22.8856 18 23.3333 18.4477 23.3333 19V30C23.3333 30.5523 22.8856 31 22.3333 31H21C20.4477 31 20 30.5523 20 30V19Z" fill="black"/>
</svg>
