<svg width="50" height="50" viewBox="0 0 50 50" fill="none" xmlns="http://www.w3.org/2000/svg">
<path d="M15.5 30.125H18.5341L25.0006 34.436C25.1703 34.5487 25.3672 34.6134 25.5706 34.6233C25.774 34.6332 25.9762 34.5879 26.156 34.4923C26.3356 34.3961 26.4856 34.2531 26.5903 34.0783C26.6949 33.9036 26.7501 33.7037 26.75 33.5V15.5C26.7499 15.2965 26.6946 15.0969 26.59 14.9223C26.4854 14.7478 26.3354 14.6049 26.156 14.5088C25.9766 14.4128 25.7745 14.3672 25.5712 14.3769C25.368 14.3866 25.1712 14.4513 25.0017 14.564L18.5341 18.875H15.5C14.2591 18.875 13.25 19.8842 13.25 21.125V27.875C13.25 29.1159 14.2591 30.125 15.5 30.125ZM15.5 21.125H18.875C18.9121 21.125 18.9436 21.107 18.9796 21.1037C19.1289 21.0883 19.2737 21.0439 19.406 20.9732C19.4353 20.9574 19.4701 20.954 19.4983 20.936L24.5 17.6015V31.3985L19.4994 28.064C19.4712 28.0438 19.4364 28.0415 19.4071 28.0269C19.2744 27.9543 19.1281 27.9099 18.9774 27.8964C18.9414 27.893 18.911 27.875 18.875 27.875H15.5V21.125ZM29 18.875V30.125C30.3781 28.8875 31.25 26.4924 31.25 24.5C31.25 22.5077 30.3781 20.1125 29 18.875Z" fill="white"/>
</svg>
